<svg width="960" height="960" viewBox="0 0 960 960" fill="none" xmlns="http://www.w3.org/2000/svg">
<g clip-path="url(#clip0_3121_709)">
<rect width="960" height="960" fill="white"/>
<path d="M151.768 387.266V565H121.128V387.266H151.768ZM224.278 465.024V489.316H143.955V465.024H224.278ZM234.41 387.266V411.68H143.955V387.266H234.41ZM247.185 500.425V497.617C247.185 488.096 248.569 479.266 251.336 471.128C254.102 462.909 258.09 455.788 263.298 449.766C268.588 443.662 275.017 438.942 282.586 435.605C290.235 432.188 298.862 430.479 308.464 430.479C318.149 430.479 326.775 432.188 334.343 435.605C341.993 438.942 348.463 443.662 353.753 449.766C359.042 455.788 363.071 462.909 365.837 471.128C368.604 479.266 369.988 488.096 369.988 497.617V500.425C369.988 509.946 368.604 518.776 365.837 526.914C363.071 535.052 359.042 542.173 353.753 548.276C348.463 554.299 342.034 559.019 334.465 562.437C326.897 565.773 318.311 567.441 308.709 567.441C299.024 567.441 290.357 565.773 282.708 562.437C275.139 559.019 268.71 554.299 263.42 548.276C258.131 542.173 254.102 535.052 251.336 526.914C248.569 518.776 247.185 509.946 247.185 500.425ZM276.604 497.617V500.425C276.604 506.366 277.214 511.981 278.435 517.271C279.656 522.56 281.568 527.199 284.172 531.187C286.777 535.174 290.113 538.307 294.182 540.586C298.251 542.865 303.093 544.004 308.709 544.004C314.161 544.004 318.881 542.865 322.869 540.586C326.938 538.307 330.274 535.174 332.878 531.187C335.483 527.199 337.395 522.56 338.616 517.271C339.918 511.981 340.569 506.366 340.569 500.425V497.617C340.569 491.758 339.918 486.224 338.616 481.016C337.395 475.726 335.442 471.047 332.756 466.978C330.152 462.909 326.816 459.735 322.747 457.456C318.759 455.096 313.998 453.916 308.464 453.916C302.931 453.916 298.129 455.096 294.06 457.456C290.073 459.735 286.777 462.909 284.172 466.978C281.568 471.047 279.656 475.726 278.435 481.016C277.214 486.224 276.604 491.758 276.604 497.617ZM388.623 500.425V497.617C388.623 488.096 390.006 479.266 392.773 471.128C395.54 462.909 399.528 455.788 404.736 449.766C410.026 443.662 416.455 438.942 424.023 435.605C431.673 432.188 440.299 430.479 449.902 430.479C459.586 430.479 468.213 432.188 475.781 435.605C483.431 438.942 489.901 443.662 495.19 449.766C500.48 455.788 504.508 462.909 507.275 471.128C510.042 479.266 511.426 488.096 511.426 497.617V500.425C511.426 509.946 510.042 518.776 507.275 526.914C504.508 535.052 500.48 542.173 495.19 548.276C489.901 554.299 483.471 559.019 475.903 562.437C468.335 565.773 459.749 567.441 450.146 567.441C440.462 567.441 431.795 565.773 424.145 562.437C416.577 559.019 410.148 554.299 404.858 548.276C399.568 542.173 395.54 535.052 392.773 526.914C390.006 518.776 388.623 509.946 388.623 500.425ZM418.042 497.617V500.425C418.042 506.366 418.652 511.981 419.873 517.271C421.094 522.56 423.006 527.199 425.61 531.187C428.214 535.174 431.551 538.307 435.62 540.586C439.689 542.865 444.531 544.004 450.146 544.004C455.599 544.004 460.319 542.865 464.306 540.586C468.375 538.307 471.712 535.174 474.316 531.187C476.92 527.199 478.833 522.56 480.053 517.271C481.356 511.981 482.007 506.366 482.007 500.425V497.617C482.007 491.758 481.356 486.224 480.053 481.016C478.833 475.726 476.88 471.047 474.194 466.978C471.59 462.909 468.253 459.735 464.184 457.456C460.197 455.096 455.436 453.916 449.902 453.916C444.368 453.916 439.567 455.096 435.498 457.456C431.51 459.735 428.214 462.909 425.61 466.978C423.006 471.047 421.094 475.726 419.873 481.016C418.652 486.224 418.042 491.758 418.042 497.617ZM616.242 537.656V377.5H645.783V565H619.05L616.242 537.656ZM530.305 500.425V497.861C530.305 487.852 531.485 478.737 533.845 470.518C536.205 462.217 539.623 455.096 544.099 449.155C548.575 443.133 554.027 438.535 560.456 435.361C566.885 432.106 574.128 430.479 582.185 430.479C590.16 430.479 597.159 432.025 603.181 435.117C609.203 438.21 614.33 442.645 618.562 448.423C622.793 454.119 626.171 460.955 628.693 468.931C631.216 476.825 633.007 485.614 634.064 495.298V503.477C633.007 512.917 631.216 521.543 628.693 529.355C626.171 537.168 622.793 543.923 618.562 549.619C614.33 555.316 609.162 559.71 603.059 562.803C597.036 565.895 589.997 567.441 581.94 567.441C573.965 567.441 566.763 565.773 560.334 562.437C553.986 559.1 548.575 554.421 544.099 548.398C539.623 542.376 536.205 535.296 533.845 527.158C531.485 518.939 530.305 510.028 530.305 500.425ZM559.724 497.861V500.425C559.724 506.447 560.253 512.062 561.311 517.271C562.45 522.479 564.2 527.077 566.56 531.064C568.92 534.971 571.971 538.063 575.715 540.342C579.54 542.539 584.097 543.638 589.387 543.638C596.06 543.638 601.553 542.173 605.866 539.243C610.179 536.313 613.557 532.367 615.998 527.402C618.521 522.357 620.23 516.742 621.125 510.557V488.462C620.637 483.66 619.619 479.185 618.073 475.034C616.608 470.884 614.615 467.262 612.092 464.17C609.569 460.996 606.436 458.555 602.692 456.846C599.03 455.055 594.676 454.16 589.631 454.16C584.26 454.16 579.702 455.299 575.959 457.578C572.215 459.857 569.123 462.99 566.682 466.978C564.322 470.965 562.572 475.604 561.433 480.894C560.293 486.183 559.724 491.839 559.724 497.861ZM707.631 432.92V565H678.09V432.92H707.631ZM676.137 398.252C676.137 393.776 677.602 390.073 680.531 387.144C683.543 384.132 687.693 382.627 692.983 382.627C698.191 382.627 702.301 384.132 705.312 387.144C708.323 390.073 709.828 393.776 709.828 398.252C709.828 402.646 708.323 406.309 705.312 409.238C702.301 412.168 698.191 413.633 692.983 413.633C687.693 413.633 683.543 412.168 680.531 409.238C677.602 406.309 676.137 402.646 676.137 398.252ZM797.677 567.441C787.912 567.441 779.082 565.854 771.188 562.681C763.375 559.425 756.702 554.909 751.168 549.131C745.716 543.353 741.525 536.558 738.595 528.745C735.665 520.933 734.201 512.51 734.201 503.477V498.594C734.201 488.258 735.706 478.9 738.717 470.518C741.728 462.135 745.919 454.974 751.29 449.033C756.662 443.011 763.009 438.413 770.333 435.239C777.658 432.065 785.592 430.479 794.137 430.479C803.577 430.479 811.837 432.065 818.917 435.239C825.997 438.413 831.857 442.889 836.496 448.667C841.216 454.364 844.715 461.159 846.994 469.053C849.354 476.947 850.534 485.654 850.534 495.176V507.749H748.483V486.631H821.481V484.312C821.318 479.022 820.26 474.058 818.307 469.419C816.435 464.78 813.546 461.037 809.64 458.188C805.734 455.34 800.525 453.916 794.015 453.916C789.132 453.916 784.778 454.974 780.954 457.09C777.21 459.124 774.077 462.095 771.554 466.001C769.031 469.907 767.078 474.627 765.695 480.161C764.393 485.614 763.742 491.758 763.742 498.594V503.477C763.742 509.255 764.515 514.626 766.061 519.59C767.689 524.473 770.049 528.745 773.141 532.407C776.234 536.069 779.977 538.958 784.372 541.074C788.766 543.109 793.771 544.126 799.386 544.126C806.466 544.126 812.773 542.702 818.307 539.854C823.841 537.005 828.642 532.977 832.711 527.769L848.214 542.783C845.366 546.934 841.663 550.921 837.106 554.746C832.549 558.49 826.974 561.541 820.382 563.901C813.872 566.261 806.303 567.441 797.677 567.441Z" fill="url(#paint0_linear_3121_709)"/>
</g>
<defs>
<linearGradient id="paint0_linear_3121_709" x1="858" y1="479.5" x2="103" y2="479.5" gradientUnits="userSpaceOnUse">
<stop stop-color="#1A73E9"/>
<stop offset="1" stop-color="#6C92F4"/>
</linearGradient>
<clipPath id="clip0_3121_709">
<rect width="960" height="960" fill="white"/>
</clipPath>
</defs>
</svg>
